# xmcd
#
# Track frame offsets: 
#        150
#        19650
#        40212
#        68950
#        86450
#        99925
#        134637
#
# Disc length: 2664 seconds
#
# Revision: 0
# Processed by: cddbd v1.4PL0 Copyright (c) Steve Scherf et al.
# Submitted via: ExactAudioCopy v0.90b4
#
DISCID=550a6607
DTITLE=Cash McCall - Blues Classics
DYEAR=1996
DGENRE=Blues
TTITLE0=Mojo Woman
TTITLE1=Something Funny Is Going On
TTITLE2=No More Doggin'
TTITLE3=European Holiday
TTITLE4=I'll Be There
TTITLE5=Southern Woman
TTITLE6=Hurry Sundown
EXTD=
EXTT0=
EXTT1=
EXTT2=
EXTT3=
EXTT4=
EXTT5=
EXTT6=
PLAYORDER=
